<svg width="24" height="24" viewBox="0 0 24 24" fill="none" xmlns="http://www.w3.org/2000/svg">
<path d="M21.9521 9.56467C21.8989 9.40585 21.8028 9.26484 21.6745 9.15719C21.5462 9.04954 21.3906 8.97944 21.225 8.95463L15.4242 8.06821L12.821 2.52239C12.7476 2.3662 12.6313 2.23413 12.4857 2.14163C12.34 2.04912 12.171 2 11.9985 2C11.8259 2 11.6569 2.04912 11.5113 2.14163C11.3656 2.23413 11.2493 2.3662 11.1759 2.52239L8.57273 8.06821L2.77196 8.95463C2.60674 8.97982 2.45166 9.05009 2.32377 9.15772C2.19588 9.26535 2.10013 9.40616 2.04705 9.56468C1.99398 9.7232 1.98562 9.89329 2.02291 10.0562C2.0602 10.2192 2.14169 10.3687 2.25842 10.4884L6.48583 14.8177L5.48601 20.9436C5.45873 21.1117 5.47921 21.2841 5.54511 21.4412C5.61102 21.5982 5.7197 21.7336 5.85878 21.8319C5.99785 21.9301 6.16173 21.9873 6.33173 21.997C6.50173 22.0066 6.67103 21.9683 6.82032 21.8864L12.0012 19.0244L17.1821 21.8864C17.3314 21.969 17.5009 22.0079 17.6712 21.9987C17.8416 21.9894 18.0059 21.9324 18.1454 21.8342C18.2849 21.7359 18.3939 21.6003 18.46 21.443C18.5261 21.2857 18.5466 21.1129 18.5191 20.9445L17.5193 14.8187L21.744 10.4884C21.8602 10.3684 21.941 10.2187 21.9778 10.0558C22.0145 9.89282 22.0056 9.72291 21.9521 9.56467Z" fill="#FEBC41"/>
</svg>
